<?xml version="1.0" encoding="utf-8"?>
<!-- Generator: Adobe Illustrator 19.0.0, SVG Export Plug-In . SVG Version: 6.00 Build 0)  -->
<svg version="1.1" id="Layer_1" xmlns="http://www.w3.org/2000/svg" xmlns:xlink="http://www.w3.org/1999/xlink" x="0px" y="0px"
	 viewBox="-242 217 473.4 128" style="enable-background:new -242 217 473.4 128;" xml:space="preserve">
<style type="text/css">
	.st0{fill:#FFFFFF;}
	.st1{fill:#E47A2E;}
	.st2{fill:#009999;}
	.st3{fill:#FAB448;}
	.st4{fill:#E4792E;}
	.st5{fill:#84CEC2;}
	.st6{fill:#0BA4AA;}
	.st7{fill:#F9B447;}
	.st8{fill:#84CEC3;}
</style>
<g id="Layer_2">
	<g id="Layer_1-2">
		<path class="st0" d="M-99,294.8c-5.4,0.1-10.6,1.9-15,5v-15h-10v60.1h10c0.9-12.8-5.5-40.1,15-40c20.5-0.1,14.1,27.2,15,40h10
			C-73.7,324-70.4,296.5-99,294.8"/>
		<path class="st0" d="M-43.9,344.8c-32.8,0.1-32.8-50.1,0-50C-10.7,295.2-11.3,344.4-43.9,344.8 M-43.9,304.8
			c-19.7-0.2-19.7,30.2,0,30C-24,334.9-24.5,304.7-43.9,304.8"/>
		<path class="st0" d="M26.2,294.8c-1,12.8,5.5,40.1-15,40s-14.1-27.3-15-40h-10c-0.2,20.7-3.8,48.9,25,50.1
			c28.9-1.2,25.3-29.3,25-50.1H26.2z"/>
		<path class="st0" d="M56.2,304.8h35v-10h-35c-8.1-0.1-14.9,6.3-15,14.5c0,0.2,0,0.3,0,0.5c0.1,18.9,22.6,14.7,35,15
			c4.3-0.1,6.7,5.6,3.5,8.5c-0.1,3-36.6,0.9-38.5,1.5v10h35c19.7,0.2,19.7-30.2,0-30h-20C49.6,315.1,49.6,304.4,56.2,304.8"/>
		<path class="st0" d="M121.3,324.8h24.5c6.3-35.8-48.6-41.3-49.5-5c-0.3,17.5,17.8,29.5,34,23.5l-3.5-9.5
			c-9.6,3.8-20.8-3.4-20.5-14c-0.7-16.6,24.3-20.6,29-5h-14L121.3,324.8z"/>
		<path class="st0" d="M191.3,294.8c-44.3,3.4-23,68.8,15,45v5h10C216.6,324,220,296.5,191.3,294.8 M191.3,334.8
			c-19.7,0.2-19.7-30.2,0-30C211.3,304.7,210.7,334.9,191.3,334.8"/>
		<rect x="221.4" y="294.8" class="st0" width="10" height="50"/>
		<path class="st1" d="M226.4,274.8c6.5-0.1,6.5,10.1,0,10C219.9,284.9,219.9,274.6,226.4,274.8"/>
		<path class="st2" d="M156.3,334.8c6.5-0.1,6.5,10.1,0,10C149.8,344.9,149.8,334.7,156.3,334.8"/>
		<path class="st0" d="M-100.4,273.2c-32.8,0.1-32.8-50.1,0-50C-67.2,223.6-67.7,272.8-100.4,273.2 M-100.4,233.2
			c-19.7-0.2-19.7,30.2,0,30C-80.5,263.3-81,233.1-100.4,233.2"/>
		<path class="st0" d="M-45.3,223.1c-33.9,0.4-23.6,43.6-25,65.1h10v-20C-22.9,291.9-0.6,227.3-45.3,223.1 M-45.3,263.2
			c-19.7,0.2-19.7-30.2,0-30C-25.4,233.1-25.9,263.3-45.3,263.2"/>
		<path class="st0" d="M9.7,253.1h24.5c6.3-35.8-48.6-41.3-49.5-5c-0.3,17.6,17.8,29.5,34,23.5l-3.5-9.5c-9.6,3.8-20.9-3.4-20.5-14
			c-0.7-16.6,24.3-20.6,29-5h-14L9.7,253.1z"/>
		<path class="st0" d="M64.8,223.1c-28.9,1.2-25.3,29.3-25,50h10c1-12.8-5.5-40.1,15-40s14.1,27.2,15,40h10
			C90.2,252.4,93.3,224.4,64.8,223.1"/>
		<path class="st3" d="M-140.6,326l-8.7,4.1l-9.1-4.3c-3.5-1.5-2.2-7.1,1.6-7c0.5,0,1.1,0.1,1.6,0.4L-140.6,326z"/>
		<path class="st4" d="M-155.3,344.5l20-9.3c4.4-1.9,1.2-8.7-3.1-6.6l-20,9.3C-162.8,339.8-159.6,346.5-155.3,344.5"/>
		<path class="st5" d="M-215.1,321c-0.8-1.8-3-2.6-4.8-1.8c0,0,0,0,0,0l-14.7,6.8l8.7,4C-223.3,328.1-212.4,326.1-215.1,321"/>
		<path class="st6" d="M-219.9,344.5l-20-9.3c-4.3-1.9-1.2-8.7,3.1-6.6l20,9.3C-212.5,339.8-215.7,346.5-219.9,344.5"/>
		<path class="st7" d="M-168,313c-22.2,21.2-15.4,24.5-38.3,1.1c1.6-4.7,2.5-9.5,2.8-14.5C-193.5,308.1-181,312.8-168,313"/>
		<path class="st8" d="M-208.2,297.4c0,4.4-0.6,8.8-1.8,13c-10.6-10.1-22.6-21.5-24.7-36.4c7,2.3,14.3,3.1,21.6,2.4
			C-209.9,282.9-208.2,290.1-208.2,297.4"/>
		<path class="st2" d="M-139.8,265c0.5,17.8-10.3,31.4-23.3,43.1c-15,1-29.8-4.4-40.5-15c-0.5-6.1-2-12-4.6-17.5
			c1.5-0.3,3-0.7,4.5-1.1c14.7,22.8,47.4-1.8,29.6-22.2c5.7-8.9,8.5-19.4,8-30C-150.2,230-139.5,248-139.8,265"/>
		<path class="st1" d="M-170.8,224.6c0,8.7-2.4,17.3-7,24.7c-13.7-9.3-32.9,5.1-27.8,20.9c-9.8,2.7-20.3,2.2-29.8-1.5
			c-3.8-33.5,33.1-61.4,64.4-48.6C-170.9,221.7-170.8,223.1-170.8,224.6"/>
	</g>
</g>
</svg>
